<?xml version="1.0" encoding="UTF-8"?>
<svg xmlns="http://www.w3.org/2000/svg" version="1.1" viewBox="0 0 450 253">
  <defs>
    <style>
      .cls-1 {
        fill: #231916;
      }
    </style>
  </defs>
  <!-- Generator: Adobe Illustrator 28.7.1, SVG Export Plug-In . SVG Version: 1.2.0 Build 142)  -->
  <g>
    <g id="Layer_1">
      <path class="cls-1" d="M226,161.2c-2.7-.7-5.5-1.1-8.2-2-14.6-5-24.2-19.6-23-35,1.3-16.6,13.4-29.5,29.8-31.9,18.3-2.7,36.1,10.7,38.7,29.1,2.6,18.6-9,35.2-27.3,39.1-1.2.3-2.4.4-3.6.7,0,0-6.5,0-6.5,0ZM229.2,153.1c14.5,0,26.5-11.9,26.4-26.4,0-14.5-11.9-26.4-26.3-26.4-14.4,0-26.4,11.8-26.4,26.2,0,14.7,11.7,26.6,26.3,26.7Z"/>
      <path class="cls-1" d="M309.9,161.2c-2.5-.6-5.1-.9-7.5-1.7-15.1-4.8-24.8-19.4-23.8-35.3,1-15.6,12.8-28.8,28.2-31.6,19.1-3.5,37.6,9.7,40.4,28.8,2.9,19.5-10.8,37.3-30.2,39.6-.3,0-.5.2-.8.2,0,0-6.2,0-6.2,0ZM339.4,126.6c0-14.5-11.8-26.4-26.3-26.4-14.5,0-26.4,11.8-26.4,26.5s11.8,26.4,26.3,26.4,26.4-11.8,26.4-26.4Z"/>
      <path class="cls-1" d="M75.1,161.2c-2.4-8-4.9-16-7.3-24-1.8-6-3.6-12-5.4-17.9,0-.3-.1-.6-.2-1h8.1c2.9,9.7,5.9,19.3,8.9,29.4,1.6-5.1,3-9.8,4.4-14.5,4-13.3,8.1-26.5,12.1-39.8.3-1.1.8-1.4,1.9-1.3,2.2,0,4.4,0,6.8,0-7,23.2-14,46.2-21,69.2h-8.2Z"/>
      <path class="cls-1" d="M365.3,161.2v-69.1h8.5v69.1h-8.5Z"/>
      <path class="cls-1" d="M120,161.2c0-.6.1-1.2.1-1.8v-67.3h8.4c0,.5,0,.9,0,1.3v66.7c0,.4,0,.8,0,1.1h-8.5Z"/>
      <path class="cls-1" d="M32.9,161.2c2.3-7.5,4.6-15,6.9-22.5,4.6-15.1,9.2-30.3,13.8-45.5.3-.9.6-1.3,1.6-1.3,2.2,0,4.5,0,6.9,0-.2.7-.3,1.2-.4,1.8-6.6,21.9-13.3,43.8-20,65.7-.2.6-.2,1.2-.3,1.8h-8.5Z"/>
      <path class="cls-1" d="M169.7,161.2c0-.6-.1-1.2-.1-1.8v-67.3h8.4v67.7c0,.5,0,.9,0,1.4h-8.2Z"/>
      <path class="cls-1" d="M435.9,98.5c-.8,2-2.3,3.7-4.9,3.7s-4.8-1.8-5.2-4.3c-.4-2.5,1.1-4.9,3.6-5.7,2.4-.8,4.9.3,6.1,2.6.2.4.3.7.4,1.1.1.7.1,1.7,0,2.5ZM434.9,97.1c0-2.3-1.8-4.2-4.1-4.1s-4,1.9-3.9,4.3c0,2.2,1.9,4.1,4.1,4,2.3,0,4-1.9,4-4.2h0Z"/>
      <path class="cls-1" d="M382.3,139.2v-8.1h1.6c4.2,0,8.4.2,12.5-.4,7.3-1.1,12.7-8.2,12.3-15.5-.4-7.7-6.1-13.9-13.7-14.7-1.8-.2-3.6-.1-5.3-.2-2.4,0-4.9,0-7.4,0v-8.1s.1-.1.2-.1c5.2.1,10.5-.2,15.6.6,9.5,1.4,17.5,10.4,18.7,20,1.6,12.5-7.1,24.8-20.3,26.4-4.2.5-8.6.2-12.8.2-.5,0-.9,0-1.5,0Z"/>
      <path class="cls-1" d="M33.3,135.1c-2.6,0-5,0-7.4,0-1,0-1-.7-1.2-1.3-2.5-8.4-5.1-16.7-7.6-25.1-1.7-5.5-3.3-11-5.1-16.7,2.7,0,5.2,0,7.7,0,.3,0,.7.7.9,1.2,2.9,9.5,5.8,19,8.7,28.6,1.3,4.4,2.6,8.7,4,13.3h0Z"/>
      <path class="cls-1" d="M137,130.8v-8.3h24.1v8.3h-24.1Z"/>
      <path class="cls-1" d="M433.6,99.8h-1.2l-1.6-2.4h-.7v2.4h-1v-5.6h2c1.2,0,1.9.5,1.9,1.6,0,.9-.4,1.4-1.2,1.6l1.8,2.4h0ZM430.1,95.1v1.5h1.2c.5,0,.8-.3.8-.8s-.3-.7-.8-.7h-1.2Z"/>
    </g>
  </g>
</svg>