<?xml version="1.0"?>
<svg width="450" height="253" xmlns="http://www.w3.org/2000/svg" xmlns:svg="http://www.w3.org/2000/svg" xmlns:xlink="http://www.w3.org/1999/xlink" version="1.1">
 <!-- Generator: Adobe Illustrator 28.7.4, SVG Export Plug-In . SVG Version: 1.2.0 Build 166)  -->
 <defs>
  <symbol height="697" id="svg_3" viewBox="0 0 2215 697" width="2215" xmlns="http://www.w3.org/2000/svg">
   <path d="m141.63,61.85l283.38,0l0,-61.85l-283.38,0l0,61.85zm1294.86,331.31l-198.21,0l0,-205.54l198.2,0c70.62,0 118.08,41.3 118.08,102.77c0,61.47 -47.46,102.77 -118.08,102.77m65.66,48.08c67.99,-19.61 111.92,-78.83 111.92,-150.85c0,-93.48 -71.36,-156.29 -177.58,-156.29l-257.68,0l0,552.49l59.48,0l0,-239.07l201.59,0l128.37,239.07l64.36,0l-133.82,-244.38l3.36,-0.97zm-632.24,255.76c145.89,0 247.78,-103.66 247.78,-252.08l0,-310.82l-61.14,0l0,306.65c0,114.46 -76.75,194.41 -186.64,194.41c-91.07,0 -189.1,-60.84 -189.1,-194.41l0,-306.65l-61.13,0l0,310.82c0,148.42 102.9,252.08 250.24,252.08m1067.53,-490.82l128.94,285.28l-258.71,0l129.77,-285.28zm-28.68,-72.08l-249.71,552.49l63.86,0l61.75,-141.62l304.71,0l61.78,141.62l63.85,0l-249.7,-552.49l-56.54,0zm-1625.38,-10.41c-156.26,0 -283.38,128.59 -283.38,286.65c0,158.07 127.12,286.66 283.38,286.66c156.26,0 283.38,-128.59 283.38,-286.66c0,-158.06 -127.12,-286.65 -283.38,-286.65m0,511.46c-122.55,0 -222.25,-100.85 -222.25,-224.81c0,-123.96 99.71,-224.8 222.25,-224.8c122.55,0 222.25,100.84 222.25,224.8c0,123.96 -99.7,224.81 -222.25,224.81" fill="black"/>
  </symbol>
 </defs>
 <g class="layer">
  <title>Layer 1</title>
  <use id="svg_4" transform="matrix(0.160813, 0, 0, 0.160813, 47.5666, 69.3378)" xlink:href="#svg_3"/>
 </g>
</svg>