<?xml version="1.0"?>
<svg width="450" height="253" xmlns="http://www.w3.org/2000/svg" xmlns:svg="http://www.w3.org/2000/svg" version="1.1">
 <!-- Generator: Adobe Illustrator 28.7.4, SVG Export Plug-In . SVG Version: 1.2.0 Build 166)  -->

 <g class="layer">
  <title>Layer 1</title>
  <g id="svg_1" transform="translate(0, -1) translate(0, -1) translate(0, -1) translate(0, -1) translate(0, -1) translate(0, -1) translate(0, -1) translate(-1) translate(-1) translate(-1) translate(0, 1) translate(0, 1) translate(0, 1) translate(0, 1) translate(0, 1) translate(0, 1) translate(0, 1) translate(0, 1) translate(0, 1) translate(-1) translate(-1) translate(1) translate(1) translate(1) translate(1) translate(1) translate(1) translate(1) translate(1) translate(1) translate(1) translate(1) translate(1) translate(1) translate(1) translate(1) translate(1) translate(1) translate(1) translate(1) translate(1) translate(1) translate(1) translate(1) translate(1) translate(1) translate(1) translate(1) translate(1) translate(1) translate(1) translate(7.32103, 84.421) scale(0.889721) translate(-7.32103, -84.421) translate(0, -1) matrix(0.421007, 0, 0, 0.421007, 8.32103, 86.421)">
   <g id="Layer_1">
    <g id="g3734">
     <path d="m248.9,15.3c-5.8,0 -10.5,4.7 -10.5,10.5l0,128c0,5.8 4.7,10.5 10.5,10.5l80.5,0c1.5,0 2.7,-1.2 2.7,-2.7l0,-14.7c0,-1.5 -1.2,-2.7 -2.7,-2.7l-68.4,0l0,-46.8l61.5,0c1.5,0 2.7,-1.2 2.7,-2.7l0,-13.9c0,-1.5 -1.2,-2.7 -2.7,-2.7l-61.5,0l0,-42.9l68.4,0c1.5,0 2.7,-1.2 2.7,-2.7l0,-14.2c0,-1.5 -1.2,-2.7 -2.7,-2.7l-80.5,0l0,-0.3z" id="rect3505"/>
     <path d="m520.6,52.6c-19.2,0 -31,6.6 -39,17.6l0,-11.5c0,-1.5 -1.2,-2.7 -2.7,-2.7l-16.6,0c-1.5,0 -2.7,1.2 -2.7,2.7l0,139.7c0,1.5 1.2,2.7 2.7,2.7l16.9,0c1.5,0 2.7,-1.2 2.7,-2.7l0,-47.8c7.4,10.6 19.4,16.9 38.7,16.9c32.6,0 52.8,-25.8 52.8,-57.5s-19.9,-57.5 -52.8,-57.5l0,0l0,0.1zm-4.7,18.5c23.4,0 35,17.4 35,39s-11.5,39 -35,39s-35,-17.4 -35,-39s11.5,-39 35,-39z" id="rect3515"/>
     <path d="m847.6,56l16.7,0c1.5,0 2.7,1.2 2.7,2.7l0,102.8c0,1.5 -1.2,2.7 -2.7,2.7l-16.7,0c-1.5,0 -2.7,-1.2 -2.7,-2.7l0,-102.8c0,-1.5 1.2,-2.7 2.7,-2.7l0,0z" id="rect3532"/>
     <path d="m847.4,15.3l17.1,0c1.5,0 2.7,1.2 2.7,2.7l0,17.1c0,1.5 -1.2,2.7 -2.7,2.7l-17.1,0c-1.5,0 -2.7,-1.2 -2.7,-2.7l0,-17.1c0,-1.5 1.2,-2.7 2.7,-2.7z" id="rect3534"/>
     <path d="m760,167.6c19.2,0 31,-6.6 39,-17.6l0,11.5c0,1.5 1.2,2.7 2.7,2.7l16.6,0c1.5,0 2.7,-1.2 2.7,-2.7l0,-143.4c0,-1.5 -1.2,-2.7 -2.7,-2.7l-16.9,0c-1.5,0 -2.7,1.2 -2.7,2.7l0,52.1c-7.9,-10.4 -19.4,-17.5 -38.7,-17.5c-32.6,0 -52.8,25.8 -52.8,57.5s19.9,57.5 52.8,57.5l0,0l0,-0.1zm4.7,-18.5c-23.4,0 -35,-17.4 -35,-39s11.5,-39 35,-39s35,17.4 35,39s-11.5,39 -35,39z" id="path3546"/>
     <path d="m938.9,52.7c-33,0 -52.8,25.7 -52.8,57.5s19.9,57.5 52.8,57.5s31,-6.6 39,-17.6l0,11.5c0,1.5 1.2,2.7 2.7,2.7l16.6,0c1.5,0 2.7,-1.2 2.7,-2.7l0,-102.9c0,-1.5 -1.2,-2.7 -2.7,-2.7l-16.6,0c-1.5,0 -2.7,1.2 -2.7,2.7l0,11.5c-8,-11 -19.9,-17.6 -39,-17.6l0,0l0,0.1zm4.8,18.5c23.4,0 35,17.4 35,39s-11.5,39 -35,39s-35,-17.4 -35,-39s11.5,-39 35,-39z" id="path3557"/>
     <path d="m349.9,56c-2.4,0 -2.8,1.9 -1.7,3.4l35.3,48.3l-38.7,53.3c-1.1,1.5 -0.7,3.4 1.7,3.4l19.1,0c1.7,0 2.5,-0.6 3.1,-1.4l26.4,-38.9l27.5,38.9c0.6,0.8 1.4,1.4 3.1,1.4l19.8,0c2.4,0 2.8,-1.9 1.7,-3.4l-38.9,-53.3l35.1,-48.3c1.1,-1.5 0.7,-3.4 -1.7,-3.4l-18.7,0c-1.7,0 -2.5,0.6 -3.1,1.4l-23.2,34l-23.9,-34c-0.6,-0.8 -1.4,-1.4 -3.1,-1.4l-19.8,0z" id="rect3567"/>
     <path d="m640.3,52.6c-33.2,0 -53.1,23.8 -53.1,57.5s23.6,57.5 53.1,57.5s49.8,-21 50.5,-21.8c0.9,-0.9 0.7,-2.6 0,-3.3l-10.3,-10.1c-0.8,-0.7 -2.2,-0.9 -3.2,0.1c-0.8,0.8 -13.3,16.6 -33.9,16.6s-32.6,-13.4 -34.1,-33.1l81.5,0c2.5,0 2.7,-2.2 2.7,-3.7c0.2,-40.1 -23.1,-59.7 -53.1,-59.7l0,0l-0.1,0zm0.1,17.4c20.1,0 28.5,12.1 30.2,29.2l-60.6,0c2.4,-16.8 11.2,-29.2 30.3,-29.2l0,0l0.1,0z" id="path3599"/>
    </g>
    <path d="m142.6,0l-105.3,0c-20.7,0 -37.3,16.6 -37.3,37.3l0,105.3c0,20.6 16.6,37.2 37.3,37.3l105.2,0c20.7,0 37.3,-16.6 37.3,-37.3l0,-105.3c0,-20.7 -16.6,-37.3 -37.2,-37.3zm-87.7,144.6c0,1.4 -1.2,2.6 -2.6,2.6l-17.3,0c-1.4,0 -2.6,-1.2 -2.6,-2.6l0,-17.4c0,-1.4 1.2,-2.6 2.6,-2.6l17.3,0c1.4,0 2.6,1.2 2.6,2.6l0,17.4zm92.5,-15.3c0,1.7 -0.4,2.7 -1.3,3.6l-18,18c-0.4,0.3 -0.8,0.5 -1.3,0.5c-1,0 -1.8,-0.8 -1.8,-1.8l0,-77.9l-47.9,47.9c-0.9,1 -1.4,1.5 -3.3,1.5l-12.6,0c-0.7,0 -1.4,-0.3 -1.9,-0.8s-0.8,-1.1 -0.8,-1.9l0,-12.6c0,-1.8 0.6,-2.4 1.5,-3.3l47.9,-47.9l-77.9,0c-1,0 -1.8,-0.8 -1.8,-1.8s0.2,-1 0.5,-1.3l18,-18c0.9,-0.9 1.9,-1.3 3.6,-1.3l85.1,0c6.6,0 12,5.4 12,12l0,85.1z" id="svg_2"/>
    <g id="g5063">
     <path d="m1019.1,61.7l1.4,0c1.5,0 2.2,-0.4 2.2,-1.5s-0.8,-1.5 -2.3,-1.5l-1.3,0l0,3l0,0zm1.7,-4.3c2.7,0 4.1,0.9 4.1,2.6s-0.8,2.3 -2.1,2.7l2.1,4.3l-2.3,0l-1.9,-4l-1.5,0l0,4l-2.1,0l0,-9.6l3.7,0l0,0zm-5.3,-0.3c-1.4,1.4 -2.2,3.3 -2.2,5.2s0.7,3.7 2.1,5.1c1.4,1.4 3.2,2.2 5.1,2.2s3.8,-0.7 5.3,-2.1c1.4,-1.3 2.1,-3.1 2.1,-5s-0.7,-3.8 -2.1,-5.2s-3.2,-2.2 -5.2,-2.2s-3.7,0.7 -5.1,2.1m11.2,-0.8c1.6,1.6 2.4,3.7 2.4,6s-0.9,4.5 -2.5,6.1c-1.7,1.6 -3.8,2.5 -6.1,2.5s-4.4,-0.9 -6.1,-2.6c-1.6,-1.6 -2.5,-3.7 -2.5,-6s0.9,-4.5 2.6,-6.1c1.6,-1.6 3.6,-2.4 6,-2.4s4.5,0.9 6.1,2.6" id="path5065"/>
    </g>
   </g>
  </g>
 </g>
</svg>