<?xml version="1.0" encoding="UTF-8"?>
<svg id="Layer_1" data-name="Layer 1" xmlns="http://www.w3.org/2000/svg" viewBox="0 0 450 253">
  <defs>
    <style>
      .cls-1 {
        fill: #010101;
        stroke-width: 0px;
      }
    </style>
  </defs>
  <path class="cls-1" d="M95.28,140.14c-5.27.77-7.91-3.64-6.18-7.44,1.44-3.16,2.15-6.56,2.15-10.18,0-3.62-.65-6.96-2.09-10.12-1.28-3.08.86-8.26,6.14-7.49,2.83.41,5.03-2.24,5.03-5.92s-2.2-7.21-5.03-7.95c-2.97-.77-5.49,1.82-5.49,5.82,0,6.97-3.83,9.79-6.92,7.16-2.73-2.32-5.91-3.82-9.57-4.4-3.88-.62-7.7-.02-11.11,1.54-3.56,1.28-10.25-3.05-10.25-11.96,0-5.19-4.44-10.55-10.27-12.06-6.23-1.61-11.63,1.76-11.63,7.64,0,5.88,5.39,11.43,11.63,12.34,9.26,1.34,13.6,7.17,11.86,11.47-2.57,3.79-4.13,8.54-4.13,13.93,0,5.13,1.43,9.67,3.77,13.36,1.62,3.69-1.96,10.62-11.52,12.01-6.24.9-11.63,6.45-11.63,12.34,0,5.88,5.39,9.25,11.63,7.64,5.82-1.51,10.27-6.87,10.27-12.06h0c0-8.66,5.53-13.59,9.79-12.17,3.53,1.73,7.51,2.43,11.59,1.78,3.63-.58,6.78-2.03,9.5-4.33,2.53-1.99,6.97.12,6.97,7.09,0,4,2.52,6.59,5.49,5.82,2.83-.73,5.03-4.28,5.03-7.95s-2.2-6.33-5.03-5.91ZM73.14,136.83c-7.49.84-14.23-5.52-14.23-14.31s6.75-15.15,14.23-14.3c6.7.75,11.62,7.13,11.62,14.3s-4.93,13.55-11.62,14.31Z"/>
  <path class="cls-1" d="M96.87,108.75h7.64v3.25l.38-.43.49-.6c1.79-1.9,3.69-2.76,6.13-2.87h.92v6.93c-.38-.11-.76-.16-1.14-.22-4.34-.38-6.45,1.84-6.45,6.12v15.88h-7.97v-28.07Z"/>
  <path class="cls-1" d="M120.48,108.37c-1.57.11-2.98.22-4.61.49v6.07c.43-.11.87-.16,1.3-.22,3.04-.38,5.74-.38,7.48-.16,4.61.54,6.45,2.33,6.45,5.2v1.95c-1.46-1.08-3.2-1.73-5.8-2.01-1.25-.16-2.49-.11-3.74.06-6.07.76-9.49,4.44-9.59,8.83-.22,4.5,3.79,8.67,10.57,8.67,2.98.05,5.31-.7,7.48-2.22.27-.22.6-.49.87-.7v2.49h7.86v-16.58c0-8.07-5.1-12.36-18.26-11.87ZM129.43,131.35c-.7.49-1.57.81-2.82.98-.65.11-1.3.11-2,.05-3.09-.27-4.66-1.9-4.71-3.9.16-2.55,2.55-4.44,6.72-3.9,1.52.16,2.77.76,3.52,1.46,1.52,1.41,1.3,4.01-.71,5.31Z"/>
  <path class="cls-1" d="M144.72,108.75h7.64v3.04c.22-.22.44-.43.65-.65,2.22-1.95,4.5-2.87,7.21-2.92,6.83-.16,11.06,4.44,11.06,12.46v16.15h-7.97v-15.12c.05-4.12-1.41-6.23-4.28-6.99-3.96-.98-6.34,1.19-6.34,5.53v16.58h-7.96v-28.07Z"/>
  <path class="cls-1" d="M197.71,108.75v3.25c-3.36-4.01-10.51-4.82-15.99-.92-2.98,2.11-5.04,5.36-5.64,9.16-.16.92-.21,1.79-.21,2.71-.06.87,0,1.79.11,2.66.6,4.93,3.42,8.78,7.64,10.68,5.36,2.44,10.84,1.19,13.71-2.11v2.06c0,4.12-2.6,6.5-8.35,6.61-1.52.05-3.03-.16-4.55-.6v6.94c1.68.27,3.31.38,4.93.38,10.73-.16,15.99-5.04,15.99-12.9v-27.91h-7.64ZM197.71,124.09c-.43,3.74-2.49,6.07-5.47,6.56-4.34.76-7.7-1.84-8.24-6.61-.05-.44-.11-.81-.11-1.25s.06-.87.11-1.3c.54-4.34,3.09-6.72,6.83-6.72s6.34,2.38,6.88,6.78c.11.81.11,1.68,0,2.55Z"/>
  <path class="cls-1" d="M238.73,122.61c-.14-8.23-5.72-14.08-13.68-14.65-1.94-.11-3.87.11-5.68.71-.5.17-1,.38-1.47.59-5.03,2.34-8.53,7.46-8.53,13.38,0,5,2.48,9.4,6.27,12.06l.06.04c1.39.94,2.98,1.69,4.75,2.19,5.67,1.65,11.07.17,15.26-4.14.25-.26.43-.49.67-.76l-6.06-4.19c-.15.13-.25.27-.4.39-1.14,1.19-2.24,1.89-3.47,2.21-2.04.59-4.01.41-5.56-.49-2.19-1.2-3.37-3.35-3.23-5.18l20.96.12c.05-.77.1-1.5.1-2.28ZM217.99,119.79c.12-.42.19-.85.36-1.25,1.12-3.06,3.79-4.88,6.86-4.77,3.42.09,5.87,2.33,6.29,5.33l.09.48v.34s-13.61-.13-13.61-.13Z"/>
  <path class="cls-1" d="M241.05,108.75h3.15v-7.15l4.06-1.68v8.83h7.54l-.76,2.98h-6.77v14.79l.06.49.05,2.11c.05,3.31,2.11,5.1,6.34,4.83.32,0,.65-.06.98-.11v3.14c-.32.05-.65.11-.98.11-7.96.65-10.51-2.11-10.51-10.46v-14.9h-3.63l.49-2.98Z"/>
  <path class="cls-1" d="M259.2,99.17l4.12-1.63v15.76c.49-.7,1.08-1.35,1.73-1.95,1.57-1.46,3.47-2.44,5.58-2.87,8.18-1.73,14.26,3.52,14.26,12.03v16.31h-4.12v-14.96c0-6.88-3.14-10.35-8.62-10.24-5.47.06-8.83,3.69-8.83,9.54v15.66h-4.12v-37.65Z"/>
  <path class="cls-1" d="M358.08,108.75h4.01v3.96c.16-.22.27-.43.44-.65,1.95-2.71,4.44-4.06,7.69-4.12.38,0,.76,0,1.14.05v3.85c-.38-.05-.81-.11-1.25-.11-2.49-.11-4.66.76-6.12,2.38-1.25,1.46-1.79,2.98-1.79,5.47v17.23h-4.12v-28.07Z"/>
  <path class="cls-1" d="M408.05,98.39c2.91,0,5.17,2.26,5.17,5.07s-2.26,5.11-5.2,5.11-5.23-2.23-5.23-5.11,2.32-5.07,5.23-5.07h.03ZM407.99,99.41c-2.23,0-3.9,1.83-3.9,4.05s1.67,4.06,3.96,4.06c2.23.03,3.87-1.8,3.87-4.06s-1.64-4.05-3.9-4.05h-.03ZM407.22,106.09h-1.18v-5.04c.47-.09,1.11-.19,1.95-.19.96,0,1.39.16,1.76.4.28.22.49.62.49,1.08,0,.59-.43,1.02-1.05,1.21v.06c.49.16.77.56.93,1.24.15.77.25,1.08.37,1.24h-1.27c-.16-.19-.25-.62-.4-1.21-.09-.56-.4-.81-1.05-.81h-.56v2.01h0ZM407.25,103.25h.56c.65,0,1.18-.22,1.18-.74,0-.46-.34-.77-1.08-.77-.31,0-.52.03-.65.06v1.45Z"/>
  <path class="cls-1" d="M340.17,107.99c-10.24-1.46-17.72,5.15-17.72,14.69s7.48,16.15,17.72,14.69c7.69-1.14,12.46-6.83,12.46-14.69s-4.77-13.55-12.46-14.69ZM339.46,134c-1.28.22-2.57.22-3.79,0-5.63-.95-9.2-5.3-9.2-11.32,0-3.63,1.23-6.53,3.46-8.59,1.95-1.84,4.58-2.84,7.64-2.84s5.69,1,7.64,2.84c1.73,1.62,2.79,3.63,3.24,6.14,1.23,7.14-2.62,12.66-8.98,13.78Z"/>
  <path class="cls-1" d="M374.71,108.74h4.12v15.34c0,5.91,2,8.67,6.66,9.54,1.25.22,2.49.22,3.74-.05,4.71-.87,6.88-3.68,6.88-8.62v-16.2h4.07v26.88c0,7.75-5.64,12.84-17.13,12.14-.7,0-1.35-.11-2-.17v-3.47c.65.11,1.3.16,1.95.22,8.94.49,13.06-3.14,13.06-9.43v-2.55c-.22.32-.49.6-.71.87-2.44,2.71-5.26,3.95-9.16,3.95-5.36,0-8.57-2.6-10.18-5.51-.26-.46-.47-1.05-.65-1.66-.46-1.55-.65-3.3-.65-5.33v-15.94Z"/>
  <path class="cls-1" d="M318.07,123.84c.05-.6.06-1.22.05-1.79-.38-8.72-7.85-14.97-16.54-13.69-5.11.76-9.21,3.95-11.14,8.64l.02-.07c-.71,1.79-1.09,3.79-1.09,5.94,0,7.01,4.07,12.43,10.3,14.13h0c4.59,1.28,9.55.51,13.33-2.14,1.13-.81,2.12-1.71,2.97-2.77l-3.06-2.15c-.17.23-.39.4-.55.58-3.85,3.7-8.98,4.52-13.2,2.32-3.4-1.74-5.36-4.76-5.59-8.38,0-.22.01-.45.03-.72l24.45.09ZM294.27,118.59c1.54-4.52,5.41-7.26,10.06-7.2,4.59.1,8.24,2.93,9.4,7.02.16.44.25.92.29,1.37l.08.53.02.51-20.29-.11c.04-.72.24-1.45.43-2.13Z"/>
  <path class="cls-1" d="M221.21,168.27h3.66v-8.26h9.55v-3.26h-9.55v-4.65h9.75v-3.26h-13.41v19.43Z"/>
  <path class="cls-1" d="M247,148.84h-3.66v19.43h3.66v-19.43Z"/>
  <path class="cls-1" d="M255.18,152.1h5.79v16.17h3.66v-16.17h5.79v-3.26h-15.24v3.26Z"/>
  <path class="cls-1" d="M291.84,162.08l-9.5-13.18-.04-.06h-3.67v19.43h3.66v-13.61l9.7,13.55.05.06h3.47v-19.43h-3.66v13.24Z"/>
  <path class="cls-1" d="M305.49,168.27h13.41v-3.26h-9.75v-5h9.55v-3.26h-9.55v-4.65h9.75v-3.26h-13.41v19.43Z"/>
  <path class="cls-1" d="M335.25,156.47h-.03c-2.19-.56-4.07-1.04-4.07-2.4s1.21-2.23,3.09-2.23c2.12,0,4.05.76,5.43,2.13l.12.12,2.11-2.74-.1-.09c-1.86-1.8-4.3-2.71-7.27-2.71-4.12,0-7.12,2.42-7.12,5.74,0,4.17,3.83,5.12,6.91,5.88h.04c2.25.6,4.2,1.1,4.2,2.69,0,1.13-.97,2.46-3.69,2.46-3.05,0-5.03-1.62-5.94-2.59l-.13-.14-2.05,2.83.09.09c1.89,2.02,4.62,3.09,7.88,3.09,3.65,0,7.55-1.59,7.55-6.06,0-4.29-3.89-5.29-7.02-6.08Z"/>
  <path class="cls-1" d="M358.21,156.47h-.03c-2.19-.56-4.07-1.04-4.07-2.4s1.21-2.23,3.09-2.23c2.12,0,4.05.76,5.43,2.13l.12.12,2.11-2.74-.1-.09c-1.86-1.8-4.3-2.71-7.27-2.71-4.12,0-7.12,2.42-7.12,5.74,0,4.17,3.83,5.12,6.91,5.88h.04c2.25.6,4.2,1.1,4.2,2.69,0,1.13-.97,2.46-3.69,2.46-3.05,0-5.03-1.62-5.94-2.59l-.13-.14-2.05,2.83.09.09c1.89,2.02,4.62,3.09,7.88,3.09,3.65,0,7.55-1.59,7.55-6.06s-3.89-5.29-7.02-6.08Z"/>
</svg>