<?xml version="1.0"?>
<svg width="450" height="253" xmlns="http://www.w3.org/2000/svg" xmlns:svg="http://www.w3.org/2000/svg" version="1.1">
 <!-- Generator: Adobe Illustrator 29.6.0, SVG Export Plug-In . SVG Version: 2.1.1 Build 207)  -->

 <g class="layer">
  <title>Layer 1</title>
  <g id="svg_11" transform="translate(0, 1) translate(0, 1) matrix(0.436063, 0, 0, 0.436063, -18.7654, 46.9314)">
   <g id="svg_1">
    <path d="m136.8,188.9l12.6,-84.4l-29,0l-15.3,100c-0.6,5 3.1,13.4 12.3,13.4l93.4,0l4,-25.1l-74.4,0c-2.4,0 -3.6,-2.2 -3.4,-3.9l-0.2,0z" id="svg_2"/>
    <path d="m661.7,189.5l10.2,-70.6l-27.4,0l-13.4,88.4c-0.5,5.5 4.4,10.7 10.7,10.7l80.9,0l3.9,-25.1l-61.7,0c-2.1,0 -3.2,-2.1 -3.1,-3.4l-0.1,0z" id="svg_3"/>
    <path d="m766.9,189.5l10.2,-70.6l-27.4,0l-13.4,88.4c-0.5,5.5 4.4,10.7 10.7,10.7l80.9,0l3.9,-25.1l-61.7,0c-2.1,0 -3.2,-2.1 -3.1,-3.4l-0.1,0z" id="svg_4"/>
    <polygon id="svg_5" points="604.1 118.9 588.8 218 617.3 218 632.6 118.9 604.1 118.9"/>
    <path d="m548.8,104.6c-4.8,0 -6.2,3.2 -6.5,3.8c0,0 -21.9,55.6 -22,56.1c-0.2,0.5 -0.4,0.7 -0.8,0.7s-0.6,-0.3 -0.6,-0.7c0,-0.4 -5.9,-55.3 -5.9,-55.3c0,-0.8 -1.1,-4.6 -5.5,-4.6l-43.2,0l-17.7,113.4l29.3,0l11,-74.2l9.9,67.8c0.7,5.7 5,6.4 6.5,6.4l14.8,0c2.7,0 5,-1.7 6.5,-5l32.8,-69.2l-11.1,74.2l30.4,0l18.3,-113.4l-46.2,0z" id="svg_6"/>
    <path d="m256.1,182.3c0.2,-1.2 1,-1.5 1.5,-1.5l63.1,0c6.3,0 10.8,-3.4 12,-11.6l6.4,-41.2c0.4,-2.8 -1,-9.2 -8.7,-9.1l-80.4,0c-5.2,0 -12.8,3.7 -14,13.7l-11.5,74c-1.3,7.3 3.9,11.3 9.5,11.3l91.2,0l3.9,-25l-73,0c-0.8,0 -1.5,-0.7 -1.4,-1.7l1.4,-8.9zm4.4,-27.8l1.4,-9.4c0.1,-0.7 0.7,-1.2 1.4,-1.2l44.9,0c0.9,0 1.6,0.8 1.5,1.7l-1.4,9.2c-0.1,0.8 -0.8,1.3 -1.5,1.3l-44.9,0c-0.9,0 -1.6,-0.8 -1.4,-1.7l0,0.1z" id="svg_7"/>
    <path d="m375.7,145c0.1,-0.7 0.7,-1.2 1.4,-1.2l68.9,0s4.1,-24.8 4.1,-24.8l-84.9,0c-9.3,0 -13.7,6.6 -14.3,11.2l-6.5,41.7c-0.7,5.1 3.7,9 8,9l59.1,0c1,0 1.6,0.9 1.5,1.7l-1.4,9.1c-0.1,1 -0.9,1.3 -1.5,1.3l-68.8,0l-3.9,25l87.1,0c6.1,0 10.9,-3.8 11.8,-8.9l6.8,-43.7c0.6,-3.9 -1.9,-9.2 -8.7,-9.2l-58.4,0c-0.9,0 -1.6,-0.8 -1.4,-1.7l1.4,-9.4l-0.3,-0.1z" id="svg_8"/>
    <path d="m878.4,145c0.1,-0.7 0.7,-1.2 1.4,-1.2l68.9,0s4.1,-24.8 4.1,-24.8l-84.9,0c-9.3,0 -13.7,6.6 -14.3,11.2l-6.5,41.7c-0.7,5.1 3.7,9 8,9l59.1,0c1,0 1.6,0.9 1.5,1.7l-1.4,9.1c-0.1,1 -0.9,1.3 -1.5,1.3l-68.8,0l-3.9,25l87.1,0c6.1,0 10.9,-3.8 11.8,-8.9l6.8,-43.7c0.6,-3.9 -1.9,-9.2 -8.7,-9.2l-58.4,0c-0.9,0 -1.6,-0.8 -1.4,-1.7l1.4,-9.4l-0.3,-0.1z" id="svg_9"/>
   </g>
   <polygon id="svg_10" points="1028.9 160 1006.2 160 1006.2 137.3 989.2 137.3 989.2 160 966.6 160 966.6 177 989.2 177 989.2 199.6 1006.2 199.6 1006.2 177 1028.9 177 1028.9 160"/>
  </g>
 </g>
</svg>