<?xml version="1.0"?>
<svg width="450" height="253" xmlns="http://www.w3.org/2000/svg" xmlns:svg="http://www.w3.org/2000/svg">
 <defs>
  <style>.cls-1 {
        fill-rule: evenodd;
      }</style>
 </defs>
 <g class="layer">
  <title>Layer 1</title>
  <g id="svg_11" transform="translate(0, 1) translate(0, 1) translate(0, 1) translate(0, 1) translate(0, 1) translate(0, 1) translate(0, 1) translate(0, 1) translate(0, 1) translate(0, 1) translate(0, 1) matrix(1.21883, 0, 0, 1.21883, 109.072, 48.4581)">
   <polyline class="cls-1" id="svg_1" points="51.94 78.29 59.29 78.29 51.94 66.04 45.74 55.74 19.38 71.57 23.41 78.29 51.94 78.29"/>
   <polyline class="cls-1" id="svg_2" points="120.27 78.29 156.15 78.29 133.82 41.07 109.12 0 98.95 6.12 82.79 15.83 98.95 42.73 120.27 78.29"/>
   <path class="cls-1" d="m107.73,105.81c-0.79,4.08 -4.41,7.21 -8.7,7.21l-0.08,0c-4.87,-0.05 -8.81,-4.03 -8.81,-8.89s3.94,-8.84 8.81,-8.87l0.08,0c4.3,0 7.92,3.1 8.7,7.18l0,3.37m0,-15.26c-2.53,-1.63 -5.49,-2.58 -8.7,-2.58l-0.08,0c-8.87,0.05 -16.08,7.29 -16.08,16.16s7.21,16.1 16.08,16.16l0.08,0c3.21,0 6.18,-0.95 8.7,-2.58l0,1.69l7.43,0l0,-41.1l-7.43,0l0,12.27l0,-0.02z" id="svg_3"/>
   <path class="cls-1" d="m142.6,105.81c-0.79,4.08 -4.41,7.21 -8.71,7.21l-0.08,0c-4.87,-0.05 -8.81,-4.03 -8.81,-8.89s3.94,-8.84 8.81,-8.87l0.08,0c4.3,0 7.92,3.1 8.71,7.18l0,3.37m0,-15.26c-2.5,-1.63 -5.49,-2.58 -8.71,-2.58l-0.08,0c-8.87,0.05 -16.08,7.29 -16.08,16.16s7.21,16.1 16.08,16.16l0.08,0c3.21,0 6.2,-0.95 8.71,-2.58l0,1.69l7.43,0l0,-30.6l-7.43,0l0,1.77l0,-0.02z" id="svg_4"/>
   <path class="cls-1" d="m176.44,102.11c-0.27,-0.14 -0.65,-0.27 -1.09,-0.44c-1.66,-0.57 -4.35,-1.28 -8.1,-2.09c-3.29,-0.73 -4.95,-1.69 -4.95,-2.88c0,-0.84 0.3,-1.52 0.87,-2.01c0.76,-0.65 2.12,-0.98 4.08,-0.98s3.43,0.44 4.27,1.28c0.52,0.52 0.9,1.44 1.14,2.75l7.89,0c0,-3.86 -1.58,-6.64 -4.68,-8.32c-0.16,-0.11 -0.33,-0.19 -0.52,-0.27c-2.15,-1.01 -5,-1.52 -8.57,-1.52c-4.32,0 -7.59,1.14 -9.76,3.45c-1.74,1.85 -2.58,4.11 -2.58,6.77c0,3.32 1.63,5.71 4.95,7.26c1.25,0.6 4.3,1.44 9.14,2.48c3.24,0.71 4.87,1.71 4.87,2.99c0,0.76 -0.33,1.41 -1.03,2.01c-0.9,0.76 -2.26,1.14 -4.08,1.14c-2.42,0 -4.14,-0.41 -5.14,-1.2c-1.01,-0.76 -1.52,-1.88 -1.52,-3.29l-8.27,0c0,3.75 1.58,6.56 4.76,8.41c2.53,1.44 5.85,2.18 9.96,2.18c2.75,0 5.2,-0.46 7.29,-1.36c0.44,-0.19 0.82,-0.38 1.22,-0.6c3.24,-1.8 4.87,-4.65 4.87,-8.57c0,-3.21 -1.66,-5.6 -5.01,-7.18" id="svg_5"/>
   <path class="cls-1" d="m25.53,105.81c-0.79,4.08 -4.41,7.21 -8.73,7.21l-0.08,0c-4.84,-0.05 -8.79,-4.03 -8.79,-8.89s3.94,-8.84 8.79,-8.87l0.08,0c4.33,0 7.94,3.1 8.73,7.18l0,3.37m0,-15.26c-2.53,-1.63 -5.52,-2.58 -8.73,-2.58l-0.08,0c-8.84,0.05 -16.05,7.29 -16.05,16.16s7.21,16.1 16.05,16.16l0.08,0c3.21,0 6.2,-0.95 8.73,-2.58l0,1.69l7.43,0l0,-30.6l-7.43,0l0,1.77l0,-0.02z" id="svg_6"/>
   <rect height="7.1" id="svg_7" width="8.08" x="71.88" y="78.45"/>
   <rect height="31.42" id="svg_8" width="8.08" x="71.88" y="87.97"/>
   <path class="cls-1" d="m60.75,105.81c-0.79,4.08 -4.41,7.21 -8.73,7.21l-0.08,0c-4.87,-0.05 -8.81,-4.03 -8.81,-8.89s3.94,-8.84 8.81,-8.87l0.08,0c4.32,0 7.94,3.1 8.73,7.18l0,3.37m0,-15.26c-2.53,-1.63 -5.52,-2.58 -8.73,-2.58l-0.08,0c-8.87,0.05 -16.08,7.29 -16.08,16.16s7.21,16.1 16.08,16.16l0.08,0c3.21,0 6.2,-0.95 8.73,-2.58l0,1.69l7.43,0l0,-41.1l-7.43,0l0,12.27l0,-0.02z" id="svg_9"/>
   <polyline class="cls-1" id="svg_10" points="107.71 78.29 98.95 63.65 77.43 27.85 51.94 43.2 51.07 43.71 51.94 45.15 71.85 78.29 107.71 78.29"/>
  </g>
 </g>
</svg>