<?xml version="1.0"?>
<svg width="450" height="253" xmlns="http://www.w3.org/2000/svg" xmlns:svg="http://www.w3.org/2000/svg" version="1.0">
 <g class="layer">
  <title>Layer 1</title>
  <g id="svg_4" transform="translate(0, 1) translate(0, 1) translate(0, -1) matrix(0.321223, 0, 0, 0.321223, 64.3884, 84.3884)">
   <path d="m620.38,235.67c-58.11,42.83 -142.34,65.68 -214.86,65.68c-101.69,0 -193.23,-37.61 -262.48,-100.16c-5.44,-4.92 -0.57,-11.62 5.96,-7.79c74.74,43.49 167.15,69.65 262.61,69.65c64.38,0 135.21,-13.32 200.33,-40.96c9.83,-4.18 18.06,6.44 8.44,13.58" fill="#000000" fill-rule="evenodd" id="svg_1"/>
   <path d="m644.54,208.03c-7.4,-9.49 -49.1,-4.49 -67.82,-2.27c-5.7,0.7 -6.57,-4.26 -1.44,-7.83c33.22,-23.38 87.72,-16.63 94.07,-8.8c6.36,7.88 -1.65,62.51 -32.86,88.59c-4.79,4 -9.36,1.87 -7.23,-3.44c7.01,-17.5 22.72,-56.72 15.28,-66.25" fill="#000000" fill-rule="evenodd" id="svg_2"/>
   <path d="m578.03,32.91l0,-22.72c0,-3.44 2.61,-5.75 5.74,-5.75l101.73,0c3.26,0 5.88,2.35 5.88,5.75l0,19.45c-0.05,3.27 -2.79,7.53 -7.66,14.28l-52.72,75.26c19.59,-0.48 40.27,2.44 58.03,12.45c4,2.27 5.09,5.57 5.39,8.84l0,24.25c0,3.3 -3.65,7.18 -7.48,5.18c-31.3,-16.41 -72.87,-18.2 -107.48,0.17c-3.52,1.92 -7.22,-1.92 -7.22,-5.22l0,-23.03c0,-3.7 0.04,-10.01 3.74,-15.63l61.07,-87.58l-53.15,0c-3.26,0 -5.87,-2.31 -5.87,-5.7m-371.09,141.77l-30.95,0c-2.96,-0.21 -5.31,-2.43 -5.53,-5.26l0,-158.84c0,-3.18 2.66,-5.7 5.96,-5.7l28.86,0c3.01,0.13 5.4,2.43 5.62,5.31l0,20.76l0.57,0c7.53,-20.07 21.67,-29.43 40.74,-29.43c19.37,0 31.47,9.36 40.18,29.43c7.48,-20.07 24.5,-29.43 42.74,-29.43c12.97,0 27.16,5.36 35.83,17.37c9.79,13.37 7.79,32.78 7.79,49.8l-0.05,100.25c0,3.18 -2.65,5.74 -5.96,5.74l-30.9,0c-3.09,-0.21 -5.58,-2.69 -5.58,-5.74l0,-84.19c0,-6.7 0.61,-23.42 -0.87,-29.77c-2.3,-10.67 -9.22,-13.67 -18.19,-13.67c-7.49,0 -15.32,5 -18.5,13.01c-3.18,8.01 -2.87,21.42 -2.87,30.43l0,84.19c0,3.18 -2.66,5.74 -5.97,5.74l-30.9,0c-3.14,-0.21 -5.58,-2.69 -5.58,-5.74l-0.04,-84.19c0,-17.71 2.92,-43.79 -19.07,-43.79c-22.24,0 -21.37,25.42 -21.37,43.79l0,84.19c0,3.18 -2.65,5.74 -5.96,5.74m572.02,-173.16c45.92,0 70.78,39.44 70.78,89.59c0,48.45 -27.47,86.88 -70.78,86.88c-45.1,0 -69.65,-39.44 -69.65,-88.58c0,-49.45 24.86,-87.89 69.65,-87.89m0.26,32.43c-22.81,0 -24.25,31.08 -24.25,50.45c0,19.42 -0.3,60.86 23.99,60.86c23.98,0 25.11,-33.43 25.11,-53.8c0,-13.41 -0.56,-29.43 -4.61,-42.14c-3.48,-11.06 -10.4,-15.37 -20.24,-15.37m130.07,140.73l-30.82,0c-3.09,-0.21 -5.58,-2.7 -5.58,-5.74l-0.04,-158.89c0.26,-2.91 2.83,-5.18 5.96,-5.18l28.69,0c2.7,0.13 4.92,1.96 5.53,4.44l0,24.29l0.56,0c8.67,-21.72 20.81,-32.08 42.18,-32.08c13.89,0 27.43,5.01 36.13,18.72c8.1,12.71 8.1,34.09 8.1,49.45l0,99.99c-0.35,2.78 -2.92,5 -5.96,5l-31.04,0c-2.83,-0.21 -5.18,-2.3 -5.49,-5l0,-86.28c0,-17.37 2.01,-42.79 -19.37,-42.79c-7.52,0 -14.45,5.05 -17.89,12.71c-4.35,9.71 -4.91,19.37 -4.91,30.08l0,85.54c-0.05,3.18 -2.75,5.74 -6.05,5.74m-412.36,-75.87c0,12.06 0.31,22.11 -5.79,32.82c-4.92,8.71 -12.75,14.06 -21.42,14.06c-11.88,0 -18.84,-9.05 -18.84,-22.41c0,-26.38 23.63,-31.17 46.05,-31.17l0,6.7m31.21,75.44c-2.04,1.83 -5,1.96 -7.31,0.74c-10.27,-8.53 -12.15,-12.49 -17.76,-20.64c-16.98,17.33 -29.04,22.51 -51.02,22.51c-26.07,0 -46.31,-16.06 -46.31,-48.23c0,-25.12 13.58,-42.22 32.99,-50.58c16.8,-7.4 40.27,-8.71 58.2,-10.75l0,-4.01c0,-7.35 0.57,-16.06 -3.79,-22.42c-3.74,-5.7 -10.97,-8.05 -17.36,-8.05c-11.8,0 -22.29,6.05 -24.86,18.59c-0.52,2.78 -2.57,5.53 -5.4,5.66l-29.99,-3.22c-2.52,-0.57 -5.35,-2.62 -4.61,-6.49c6.88,-36.39 39.78,-47.36 69.21,-47.36c15.06,0 34.74,4 46.62,15.41c15.06,14.06 13.62,32.82 13.62,53.24l0,48.23c0,14.49 6.01,20.85 11.67,28.68c1.96,2.79 2.39,6.14 -0.13,8.23c-6.31,5.27 -17.54,15.06 -23.72,20.55l-0.05,-0.09m-436.95,-75.44c0,12.06 0.31,22.11 -5.79,32.82c-4.91,8.71 -12.71,14.06 -21.41,14.06c-11.88,0 -18.81,-9.05 -18.81,-22.41c0,-26.38 23.64,-31.17 46.01,-31.17l0,6.7m31.21,75.44c-2.04,1.83 -5,1.96 -7.31,0.74c-10.27,-8.53 -12.1,-12.49 -17.76,-20.64c-16.97,17.33 -28.99,22.51 -51.01,22.51c-26.03,0 -46.32,-16.06 -46.32,-48.23c0,-25.12 13.63,-42.22 32.99,-50.58c16.81,-7.4 40.27,-8.71 58.2,-10.75l0,-4.01c0,-7.35 0.57,-16.06 -3.74,-22.42c-3.79,-5.7 -11.01,-8.05 -17.37,-8.05c-11.79,0 -22.33,6.05 -24.9,18.59c-0.52,2.78 -2.57,5.53 -5.35,5.66l-30.04,-3.22c-2.52,-0.57 -5.31,-2.62 -4.61,-6.49c6.92,-36.39 39.79,-47.36 69.21,-47.36c15.06,0 34.74,4 46.62,15.41c15.06,14.06 13.63,32.82 13.63,53.24l0,48.23c0,14.49 6,20.85 11.66,28.68c2.01,2.79 2.44,6.14 -0.08,8.23c-6.32,5.27 -17.55,15.06 -23.73,20.55l-0.08,-0.09" fill="#000000" fill-rule="evenodd" id="svg_3"/>
  </g>
 </g>

</svg>